HIERARCHY
ROOT Hips
{
	OFFSET 0.00 0.00 0.00
	CHANNELS 6 Xposition Yposition Zposition Xrotation Yrotation Zrotation
	JOINT LeftUpLeg
	{
		OFFSET 2.83210 0.00000 0.00000
		CHANNELS 3 Xrotation Yrotation Zrotation
		JOINT LeftLeg
		{
			OFFSET 0.00000 -16.27150 0.00000
			CHANNELS 3 Xrotation Yrotation Zrotation
			JOINT LeftFoot
			{
				OFFSET 0.00000 -14.95190 0.00000
				CHANNELS 3 Xrotation Yrotation Zrotation
				JOINT LeftToeBase
				{
					OFFSET 0.00000 -1.07991 4.03030
					CHANNELS 3 Xrotation Yrotation Zrotation
					End Site
					{
						OFFSET 0.00000 0.00000 2.95275
					}
				}
			}
		}
	}
	JOINT RightUpLeg
	{
		OFFSET -2.83210 0.00000 0.00000
		CHANNELS 3 Xrotation Yrotation Zrotation
		JOINT RightLeg
		{
			OFFSET 0.00000 -16.27150 0.00000
			CHANNELS 3 Xrotation Yrotation Zrotation
			JOINT RightFoot
			{
				OFFSET 0.00000 -14.95190 0.00000
				CHANNELS 3 Xrotation Yrotation Zrotation
				JOINT RightToeBase
				{
					OFFSET 0.00000 -1.07991 4.03030
					CHANNELS 3 Xrotation Yrotation Zrotation
					End Site
					{
						OFFSET 0.00000 0.00000 2.95275
					}
				}
			}
		}
	}
	JOINT Spine
	{
		OFFSET 0.00000 0.03937 0.00000
		CHANNELS 3 Xrotation Yrotation Zrotation
		JOINT Spine1
		{
			OFFSET 0.00000 8.01054 0.00000
			CHANNELS 3 Xrotation Yrotation Zrotation
			JOINT Neck
			{
				OFFSET 0.00000 8.21888 0.00000
				CHANNELS 3 Xrotation Yrotation Zrotation
				JOINT Head
				{
					OFFSET 0.00000 3.25664 0.00000
					CHANNELS 3 Xrotation Yrotation Zrotation
					End Site
					{
						OFFSET 0.00000 4.52755 0.00000
					}
				}
			}
			JOINT LeftShoulder
			{
				OFFSET 0.00000 8.21888 0.00000
				CHANNELS 3 Xrotation Yrotation Zrotation
				JOINT LeftArm
				{
					OFFSET 6.52904 -0.00002 0.00000
					CHANNELS 3 Xrotation Yrotation Zrotation
					JOINT LeftForeArm
					{
						OFFSET 10.44840 -0.00004 0.00000
						CHANNELS 3 Xrotation Yrotation Zrotation
						JOINT LeftHand
						{
							OFFSET 8.94727 -0.00003 0.00000
							CHANNELS 3 Xrotation Yrotation Zrotation
							JOINT LeftHandThumb
							{
								OFFSET 0.00000 0.00000 0.00000
								CHANNELS 3 Xrotation Yrotation Zrotation
								End Site
								{
									OFFSET 0.00000 0.00000 3.93700
								}
							}
							JOINT L_Wrist_End
							{
								OFFSET 3.93700 -0.00001 0.00000
								CHANNELS 3 Xrotation Yrotation Zrotation
							}
						}
					}
				}
			}
			JOINT RightShoulder
			{
				OFFSET 0.00000 8.21888 0.00000
				CHANNELS 3 Xrotation Yrotation Zrotation
				JOINT RightArm
				{
					OFFSET -6.52904 -0.00002 0.00000
					CHANNELS 3 Xrotation Yrotation Zrotation
					JOINT RightForeArm
					{
						OFFSET -10.44840 -0.00004 0.00000
						CHANNELS 3 Xrotation Yrotation Zrotation
						JOINT RightHand
						{
							OFFSET -8.94727 -0.00003 0.00000
							CHANNELS 3 Xrotation Yrotation Zrotation
							JOINT RightHandThumb
							{
								OFFSET 0.00000 0.00000 0.00000
								CHANNELS 3 Xrotation Yrotation Zrotation
								End Site
								{
									OFFSET 0.00000 0.00000 3.93700
								}
							}
							JOINT R_Wrist_End
							{
								OFFSET -5.39369 -0.00002 0.00000
								CHANNELS 3 Xrotation Yrotation Zrotation
							}
						}
					}
				}
			}
		}
	}
}
MOTION
Frames: 17
Frame Time: 0.008333
 43.1520 27.8650 14.2723 119.7022 -59.4836 131.3311 -70.0206 5.9947 -1.2479 56.6023 -0.0000 0.0000 -8.4526 1.4735 -8.1708 17.3132 0.0000 -0.0000 -14.3961 -51.1293 -13.5327 31.4186 0.0000 -0.0000 -24.6138 -38.3296 17.7000 16.5366 0.0000 0.0000 -6.3429 17.5172 -12.7326 22.9270 3.0594 -10.4696 -19.1413 -3.8246 -9.4755 -15.6588 -50.8435 10.2846 12.4395 9.6014 -0.8173 163.9453 -67.1707 153.1356 -0.0012 -80.2286 -0.0010 47.2154 5.2671 8.0036 0.0000 0.0000 0.0000 0.0000 0.0000 0.0000 4.9545 6.8453 -24.8184 -157.9706 62.7770 144.0802 -0.0004 62.0020 0.0002 49.7345 -2.6699 -32.2310 0.0000 0.0000 -0.0000 0.0000 0.0000 -0.0000
 43.1228 27.8348 14.2960 120.9281 -59.1800 132.4733 -70.0258 6.2740 -0.7291 57.0523 -0.0000 0.0000 -8.7796 1.6011 -8.0688 17.2893 -0.0000 0.0000 -15.4047 -51.5424 -14.6135 32.2119 -0.0000 0.0000 -24.5425 -38.1141 17.6734 16.4789 -0.0000 0.0000 -6.3645 17.2770 -12.5076 22.7221 2.8238 -10.4278 -18.9573 -3.8519 -9.0820 -15.7441 -51.1798 9.9500 12.4381 10.5193 -0.7960 163.0673 -67.9526 152.4017 -0.0013 -80.6750 -0.0011 47.2479 5.2539 8.8024 0.0000 -0.0000 -0.0000 0.0000 -0.0000 -0.0000 4.7500 7.4369 -25.1314 -156.9059 62.7066 142.0464 -0.0004 60.0766 0.0002 49.7367 -2.6670 -34.1588 -0.0000 0.0000 -0.0000 -0.0000 0.0000 -0.0000
 43.0907 27.8112 14.3439 122.3329 -58.8575 133.9122 -69.9174 6.6118 -0.3017 57.4356 0.0000 -0.0000 -9.1051 1.9109 -7.9270 17.3219 -0.0000 0.0000 -16.7380 -51.8586 -16.1262 33.1508 -0.0000 0.0000 -24.3775 -37.7707 17.9411 16.3642 -0.0000 0.0000 -6.2612 16.9934 -12.0298 22.3727 2.2609 -11.0140 -18.4657 -3.7224 -8.4630 -16.0200 -51.5939 9.7883 12.5121 11.7550 -0.6432 161.4334 -68.7007 151.0440 -0.0013 -81.0887 -0.0011 47.1906 5.3532 9.8100 -0.0000 0.0000 0.0000 -0.0000 0.0000 0.0000 4.3594 8.3238 -25.1944 -155.5838 62.7199 140.0313 -0.0003 57.9797 0.0002 50.1371 -2.3679 -36.2253 -0.0000 0.0000 -0.0000 -0.0000 0.0000 -0.0000
 43.0661 27.7900 14.3918 123.6989 -58.5233 135.2549 -69.8039 6.8063 0.0993 57.7710 -0.0000 0.0000 -9.4170 2.2988 -7.9106 17.4235 -0.0000 0.0000 -18.0326 -52.1527 -17.5633 34.0459 -0.0000 0.0000 -24.4449 -37.3908 18.4330 16.7563 0.0000 0.0000 -6.2651 16.7468 -11.6929 22.1419 1.9020 -11.2150 -17.7582 -3.9150 -7.8866 -16.6911 -51.8716 9.4967 12.6394 12.6411 -0.3503 159.9352 -69.6257 149.8913 -0.0014 -81.3017 -0.0012 47.5163 4.8809 10.7153 0.0000 -0.0000 0.0000 0.0000 -0.0000 0.0000 4.1871 8.9419 -25.2500 -154.9957 63.2752 138.4033 -0.0003 56.0590 0.0002 50.3415 -2.2583 -38.2594 0.0000 0.0000 -0.0000 0.0000 0.0000 -0.0000
 43.0579 27.7670 14.4456 125.3172 -58.0144 136.7635 -69.7439 7.0184 0.7011 58.1165 -0.0000 0.0000 -9.8170 2.7339 -7.6623 17.3408 0.0000 0.0000 -19.3168 -52.2175 -18.8803 35.0538 -0.0000 0.0000 -24.3081 -37.1014 18.6750 16.7367 0.0000 -0.0000 -6.2290 16.6720 -11.4923 21.9590 1.8937 -11.0815 -17.6302 -4.1289 -7.2155 -17.3096 -52.2160 8.4501 12.5266 13.3091 -0.0853 158.5102 -70.5444 148.6459 -0.0014 -81.4306 -0.0012 48.2845 3.7410 11.4293 -0.0000 0.0000 -0.0000 -0.0000 0.0000 -0.0000 3.7893 8.9782 -25.4919 -154.0970 63.7516 136.6834 -0.0003 54.2547 0.0001 51.0782 -2.3426 -39.9636 -0.0000 0.0000 0.0000 -0.0000 0.0000 0.0000
 43.0513 27.7436 14.5119 126.8494 -57.5032 138.1713 -69.7038 7.1100 1.2128 58.4904 0.0000 0.0000 -10.1494 3.3007 -7.4208 17.1089 0.0000 0.0000 -20.7028 -52.3012 -20.2891 36.1525 -0.0000 0.0000 -24.0357 -36.7252 18.9438 19.4792 -0.0000 0.0000 -6.1787 16.5781 -11.3573 21.7179 1.9560 -10.7803 -17.5413 -4.3720 -6.5952 -17.8215 -52.5780 7.4160 12.3928 13.8725 0.3582 157.2137 -70.9435 147.3196 -0.0014 -81.7137 -0.0012 46.6375 6.0040 12.1599 -0.0000 -0.0000 0.0000 -0.0000 -0.0000 0.0000 3.3241 8.8460 -25.6253 -153.3872 64.5590 135.2994 -0.0003 52.6902 0.0001 51.7404 -3.3336 -41.2400 0.0000 -0.0000 -0.0000 0.0000 -0.0000 -0.0000
 43.0327 27.7298 14.5877 128.7675 -56.9486 140.1461 -69.3944 7.4205 1.7266 58.7442 -0.0000 0.0000 -10.4911 3.9018 -7.4289 17.2767 -0.0000 0.0000 -22.2174 -52.1716 -22.0725 37.2071 -0.0000 0.0000 -23.8429 -36.2734 19.4057 19.5195 -0.0000 -0.0000 -6.0155 16.6246 -11.7278 21.5340 2.4722 -10.0279 -16.4544 -5.3065 -6.1953 -19.1936 -52.8388 6.8623 12.5686 13.8491 0.5945 154.9441 -71.7403 145.2323 -0.0014 -81.6510 -0.0012 46.9523 6.0040 12.7511 -0.0000 -0.0000 0.0000 -0.0000 -0.0000 0.0000 4.2471 8.0180 -25.1297 -155.9526 66.1409 135.6678 -0.0003 50.9484 0.0001 52.4085 -3.5814 -42.6528 -0.0000 0.0000 -0.0000 -0.0000 0.0000 -0.0000
 43.0226 27.7159 14.6708 130.6496 -56.3063 141.9785 -69.1708 7.6425 2.2909 59.0489 -0.0000 0.0000 -10.8108 4.5572 -7.2186 17.1841 -0.0000 0.0000 -23.6655 -51.9754 -23.6907 38.2900 -0.0000 0.0000 -23.6045 -35.7695 19.6490 19.5196 -0.0000 -0.0000 -5.8597 16.5189 -11.8071 21.2119 2.6512 -9.5839 -16.1416 -5.6040 -5.6045 -19.7697 -53.2364 6.0097 12.6136 14.2919 0.9641 152.7366 -72.5587 143.0604 -0.0014 -81.6462 -0.0012 46.9250 6.2023 13.2033 -0.0000 -0.0000 -0.0000 -0.0000 -0.0000 -0.0000 4.5705 7.6223 -24.8368 -156.7059 67.5008 135.0810 -0.0002 49.6619 0.0001 52.8479 -4.0253 -43.3439 -0.0000 0.0000 0.0000 -0.0000 0.0000 0.0000
 43.0061 27.7071 14.7475 132.8261 -55.6484 144.0446 -68.7485 7.8987 2.9560 59.3463 -0.0000 0.0000 -11.1665 5.2158 -7.0221 17.1872 -0.0000 0.0000 -24.8575 -51.7355 -25.2184 39.2530 -0.0000 0.0000 -23.2293 -35.2906 20.0776 19.5196 0.0000 -0.0000 -5.6729 16.5257 -12.1919 21.1143 3.2403 -8.5892 -15.7268 -6.2511 -5.1902 -20.6476 -53.6511 5.0867 12.5620 14.2760 1.1827 150.1538 -73.3628 140.3787 -0.0014 -81.5260 -0.0012 46.9825 6.4028 13.6248 0.0000 -0.0000 -0.0000 0.0000 -0.0000 -0.0000 4.7668 6.8507 -24.5757 -157.1534 68.9447 134.4457 -0.0002 48.4857 0.0001 53.5904 -4.2655 -44.5031 0.0000 -0.0000 -0.0000 0.0000 -0.0000 -0.0000
 42.9967 27.7007 14.8221 134.9514 -54.8273 146.0003 -68.4106 8.1341 3.7343 59.6490 0.0000 0.0000 -11.5300 5.8676 -6.7639 17.1834 0.0000 0.0000 -25.9988 -51.4439 -26.5912 40.1915 -0.0000 0.0000 -22.8348 -34.7637 20.7005 19.5196 -0.0000 0.0000 -5.6171 16.4056 -12.8280 20.9732 3.9575 -7.0304 -15.5049 -6.8597 -5.1436 -21.1108 -54.0203 4.4688 12.8890 14.3386 0.9641 146.4740 -74.0667 136.8974 -0.0014 -81.3362 -0.0012 46.9396 6.6863 14.2029 -0.0000 0.0000 0.0000 -0.0000 0.0000 0.0000 5.0166 6.1429 -24.6345 -157.4283 70.5534 133.7248 -0.0002 47.6621 0.0001 53.8806 -4.5165 -45.6880 -0.0000 -0.0000 -0.0000 -0.0000 -0.0000 -0.0000
 43.0039 27.7009 14.9087 136.9529 -53.7943 147.7971 -68.2294 8.3536 4.6153 59.9545 0.0000 0.0000 -11.8554 6.5694 -6.2902 17.1124 -0.0000 0.0000 -27.2132 -50.9792 -27.8058 41.1806 0.0000 -0.0000 -22.3845 -34.3242 21.1724 19.5196 -0.0000 0.0000 -5.5990 16.2390 -12.8298 20.7647 4.0260 -6.5406 -15.6434 -7.0076 -4.6053 -21.1648 -54.5152 3.7595 12.8645 15.0643 1.2599 142.6460 -74.7415 133.0443 -0.0014 -81.2199 -0.0012 46.7723 7.1698 14.6144 0.0000 0.0000 0.0000 0.0000 0.0000 0.0000 4.6121 5.9971 -24.5343 -154.7300 71.6762 130.8434 -0.0002 47.1425 0.0001 54.1842 -3.5446 -47.1929 -0.0000 -0.0000 0.0000 -0.0000 -0.0000 0.0000
 43.0042 27.7046 14.9935 139.0837 -52.6764 149.7069 -67.9120 8.6363 5.5713 60.2177 -0.0000 0.0000 -12.2262 7.2921 -5.8976 17.0494 0.0000 0.0000 -28.2953 -50.4284 -28.9685 42.1173 -0.0000 0.0000 -21.8881 -33.8913 21.7533 19.5196 -0.0000 0.0000 -5.4550 16.1159 -12.9549 20.4813 4.2294 -5.9466 -15.5394 -7.3418 -3.9977 -21.5456 -55.0682 2.9741 13.0309 15.7129 1.3785 137.6331 -75.1501 128.1930 -0.0013 -80.9808 -0.0011 46.7075 7.4378 15.0896 0.0000 0.0000 0.0000 0.0000 0.0000 0.0000 4.3075 5.7474 -24.3377 -151.7856 72.9845 127.7724 -0.0002 47.0586 0.0001 53.7329 -3.1399 -48.4734 0.0000 -0.0000 0.0000 0.0000 -0.0000 0.0000
 43.0075 27.7097 15.0938 141.1666 -51.3770 151.6494 -67.6247 9.0137 6.5570 60.4602 -0.0000 0.0000 -12.5548 8.1124 -5.5911 16.9977 -0.0000 0.0000 -29.5378 -49.6996 -30.2138 43.0942 -0.0000 -0.0000 -20.9802 -33.6683 21.1435 19.9300 -0.0000 -0.0000 -5.3136 16.0265 -13.0216 20.0826 4.3752 -5.5566 -14.9478 -7.7605 -3.2413 -22.3397 -55.6525 2.1157 13.2304 16.2680 1.7475 132.4703 -75.6442 123.0214 -0.0013 -80.7200 -0.0011 46.3375 8.0926 15.3942 0.0000 0.0000 -0.0000 0.0000 0.0000 -0.0000 4.2270 5.5464 -24.0488 -147.9601 74.3880 123.7951 -0.0002 47.2318 0.0001 53.0487 -3.1449 -49.4719 0.0000 0.0000 -0.0000 0.0000 0.0000 -0.0000
 43.0141 27.7186 15.2192 142.7987 -50.2203 153.0630 -67.4408 9.0989 7.2525 60.6749 0.0000 0.0000 -12.9057 9.1054 -4.9139 16.7883 -0.0000 0.0000 -30.9743 -49.2904 -31.5429 44.0972 -0.0000 -0.0000 -20.5200 -33.2052 21.9657 19.7094 0.0000 0.0000 -5.3213 15.6678 -12.7830 19.8144 4.1597 -5.1626 -14.8487 -8.1413 -2.6631 -22.7452 -56.0712 1.1981 13.0499 16.9897 2.0718 126.4016 -76.0551 116.5987 -0.0013 -80.6408 -0.0011 46.2084 8.2832 15.6444 0.0000 -0.0000 -0.0000 0.0000 -0.0000 -0.0000 4.2181 5.3851 -24.0259 -143.9324 75.5417 119.4616 -0.0002 47.1210 0.0001 52.8784 -3.1675 -51.0029 -0.0000 0.0000 0.0000 -0.0000 0.0000 0.0000
 43.0103 27.7407 15.2735 145.3804 -48.7841 155.3674 -66.6558 9.6959 8.5853 60.8245 -0.0000 0.0000 -13.2654 9.6799 -4.8738 17.1073 0.0000 0.0000 -31.4290 -48.4472 -32.3566 44.6818 -0.0000 -0.0000 -19.9749 -32.6455 22.3594 19.8063 -0.0000 0.0000 -4.9195 15.2490 -12.6964 19.3908 3.7939 -5.3144 -14.3484 -7.8611 -2.2794 -22.0914 -56.9786 1.9062 13.4254 18.3588 2.2181 118.5329 -76.2140 108.7296 -0.0013 -80.5552 -0.0011 46.6198 8.5495 15.6175 0.0000 0.0000 0.0000 0.0000 0.0000 0.0000 6.6431 5.3065 -22.7214 -146.0757 78.0048 118.3946 -0.0002 46.9677 0.0001 52.1378 -2.4885 -51.6281 0.0000 0.0000 -0.0000 0.0000 0.0000 -0.0000
 43.0177 27.7617 15.3759 147.3267 -47.3349 157.0382 -66.1981 10.0055 9.6186 60.9721 -0.0000 0.0000 -13.5681 10.5631 -4.5216 17.0800 -0.0000 0.0000 -32.3984 -47.7898 -33.3330 45.4284 -0.0000 -0.0000 -19.4589 -32.2033 23.3668 19.1690 -0.0000 0.0000 -4.8135 14.9810 -12.5258 19.1369 3.6542 -5.0649 -13.5996 -8.2044 -1.5926 -22.9085 -57.5477 1.2068 13.5767 18.9641 2.5737 110.9486 -76.2784 100.8702 -0.0012 -80.3861 -0.0010 46.9442 8.7882 15.6700 -0.0000 -0.0000 -0.0000 -0.0000 -0.0000 -0.0000 7.1278 5.3179 -22.2465 -140.4617 79.6112 112.0884 -0.0002 47.1305 0.0001 52.1154 -2.2401 -52.4476 -0.0000 -0.0000 -0.0000 -0.0000 -0.0000 -0.0000
 43.0340 27.7835 15.4947 148.8730 -45.7749 158.3616 -65.9564 10.1998 10.5793 61.0886 -0.0000 0.0000 -13.8109 11.5209 -4.1391 16.9813 -0.0000 0.0000 -33.6693 -47.1666 -34.3427 46.2217 -0.0000 0.0000 -18.9692 -31.7101 24.1204 18.9223 0.0000 -0.0000 -4.8913 14.6701 -12.3304 19.0017 3.4463 -4.7247 -13.4360 -8.5933 -1.0715 -23.1628 -58.0543 0.5258 13.5272 19.6403 2.9386 103.7096 -76.1527 93.1563 -0.0012 -80.2153 -0.0010 47.3809 8.9799 15.8171 -0.0000 -0.0000 -0.0000 -0.0000 -0.0000 -0.0000 6.9849 5.2175 -21.9908 -133.0092 80.7272 104.5197 -0.0002 47.1983 0.0001 52.3706 -2.0597 -53.4349 -0.0000 -0.0000 -0.0000 -0.0000 -0.0000 -0.0000
